<svg width="250" height="35" viewBox="0 0 250 35" fill="none" xmlns="http://www.w3.org/2000/svg">
<g clip-path="url(#clip0_6_4)">
<path d="M8.62968 12.459C11.176 12.4588 13.6693 13.1871 15.8151 14.5579C17.9609 15.9288 19.6697 17.885 20.7397 20.1957C21.8097 22.5063 22.1963 25.0748 21.8538 27.598C21.5112 30.1212 20.4539 32.4937 18.8067 34.4354C20.0561 34.3191 21.289 34.0658 22.4831 33.6802C24.6349 30.6811 25.6512 27.0149 25.3504 23.3359C25.0497 19.6569 23.4515 16.2044 20.8412 13.5946C18.2308 10.9847 14.7781 9.3872 11.099 9.08716C7.41995 8.78712 3.75397 9.80404 0.755217 11.9565C0.37077 13.1481 0.117532 14.3781 0 15.6247C2.4088 13.5772 5.46827 12.4549 8.62968 12.459Z" fill="#E5E5E5"/>
<path d="M7.70511 22.2714C8.41834 22.1029 9.1655 22.1498 9.85211 22.406C10.5387 22.6622 11.1339 23.1163 11.5624 23.7108C11.9909 24.3053 12.2335 25.0136 12.2595 25.746C12.2854 26.4784 12.0936 27.202 11.7083 27.8254C11.323 28.4487 10.7614 28.9438 10.0947 29.248C9.42796 29.5522 8.68599 29.6519 7.96262 29.5344C7.23926 29.4169 6.56699 29.0875 6.03084 28.5879C5.49469 28.0883 5.11874 27.4409 4.95055 26.7276C4.83873 26.2541 4.82127 25.7632 4.89919 25.283C4.97711 24.8028 5.14888 24.3427 5.40468 23.9288C5.66048 23.515 5.9953 23.1557 6.39001 22.8713C6.78473 22.5869 7.2316 22.383 7.70511 22.2714Z" fill="#E5E5E5"/>
<path d="M19.2355 25.2308C19.2359 22.9884 18.4851 20.8106 17.103 19.0448C15.7209 17.279 13.7871 16.0271 11.6102 15.4889C9.43343 14.9506 7.13905 15.1571 5.0933 16.0753C3.04754 16.9935 1.36833 18.5706 0.323669 20.5547C0.558203 21.7464 0.918953 22.9097 1.39982 24.0249C1.73357 22.7759 2.3903 21.6369 3.30397 20.7223C4.21764 19.8077 5.35603 19.1498 6.60466 18.8148C7.85328 18.4797 9.1681 18.4794 10.4169 18.8138C11.6657 19.1482 12.8044 19.8055 13.7186 20.7196C14.6327 21.6338 15.29 22.7725 15.6244 24.0213C15.9588 25.2701 15.9584 26.5849 15.6234 27.8335C15.2884 29.0821 14.6305 30.2205 13.7159 31.1342C12.8013 32.0479 11.6622 32.7046 10.4133 33.0383C11.5285 33.5192 12.6918 33.88 13.8834 34.1145C15.5004 33.2632 16.8542 31.9865 17.7986 30.4221C18.7431 28.8577 19.2423 27.065 19.2423 25.2376" fill="#E5E5E5"/>
<path d="M34.4341 17.217C34.4336 13.6025 33.2956 10.0798 31.1814 7.14802C29.0672 4.21628 26.084 2.02423 22.6546 0.882482C19.2251 -0.259268 15.5233 -0.292805 12.0737 0.786622C8.62405 1.86605 5.60163 4.00369 3.43466 6.89665C6.79721 5.69536 10.4317 5.47346 13.9154 6.25676C17.3991 7.04005 20.5889 8.79634 23.1136 11.3213C25.6383 13.8463 27.3942 17.0363 28.1771 20.5201C28.96 24.0039 28.7377 27.6384 27.5361 31.0008C29.679 29.399 31.4184 27.3191 32.616 24.9266C33.8135 22.5341 34.436 19.8952 34.4341 17.2198" fill="#EFA951"/>
<path d="M49.6914 29.0055H56.3476C57.7797 29.0934 59.1896 28.6186 60.2767 27.6822C60.7676 27.1798 61.1471 26.5797 61.3904 25.9208C61.6337 25.2619 61.7354 24.5591 61.6888 23.8583C61.7322 23.1165 61.6107 22.3742 61.333 21.6849C61.0553 20.9956 60.6283 20.3765 60.0828 19.8719C58.8197 18.863 57.228 18.3571 55.6143 18.4516H49.6914V29.0055ZM49.6914 5.95023V16.2105H54.3742C56.1616 16.3616 57.9377 15.8122 59.3275 14.6782C59.8503 14.1748 60.2616 13.5673 60.5349 12.895C60.8083 12.2227 60.9376 11.5005 60.9144 10.7752C60.9256 10.1256 60.7947 9.48143 60.531 8.8877C60.2672 8.29398 59.877 7.765 59.3876 7.33776C58.0995 6.32177 56.4773 5.8257 54.8413 5.9475L49.6914 5.95023ZM47.2973 3.69824H54.5723C56.8599 3.59307 59.1162 4.26286 60.9759 5.59926C61.7781 6.21228 62.4205 7.00988 62.8484 7.9243C63.2764 8.83873 63.4773 9.84294 63.4341 10.8516C63.4766 12.3535 63.0209 13.8272 62.1381 15.0429C61.3329 16.1622 60.1395 16.9412 58.7908 17.228C60.2601 17.4184 61.6124 18.1292 62.6024 19.2314C63.7292 20.5316 64.3048 22.2198 64.2071 23.9375C64.2517 24.9152 64.0944 25.8916 63.7451 26.8059C63.3957 27.7201 62.8617 28.5526 62.1763 29.2513C61.3876 29.9565 60.466 30.497 59.4655 30.841C58.4651 31.1851 57.406 31.3257 56.3504 31.2548H47.2973V3.69824Z" fill="white"/>
<path d="M71.9409 3.69688V31.2425H85.8339V28.9208H74.3404V3.69688H71.9409Z" fill="white"/>
<path d="M95.7787 3.69551H93.3806V31.2493H95.7787V3.69551Z" fill="white"/>
<path d="M105.064 31.2425V3.69688H108.354L115.01 15.3461L122.364 28.264C122.311 25.4297 122.285 21.137 122.286 15.3857V3.69688H124.69V31.2425H121.396L114.778 19.6739L107.387 6.6836C107.437 9.62526 107.462 13.9312 107.463 19.6015V31.2425H105.064Z" fill="white"/>
<path d="M136.182 28.9181H141.407C143.035 28.9512 144.648 28.6165 146.128 27.9389C147.422 27.3454 148.541 26.4299 149.38 25.28C150.18 24.1632 150.788 22.9213 151.18 21.6049C151.588 20.2109 151.789 18.7649 151.779 17.3126C151.85 14.3685 150.791 11.509 148.82 9.32071C147.871 8.24885 146.698 7.39869 145.384 6.83041C144.07 6.26213 142.647 5.98963 141.216 6.03218H136.183L136.182 28.9181ZM133.779 3.69688H141.208C142.95 3.63808 144.686 3.94218 146.305 4.58988C147.924 5.23757 149.391 6.21472 150.612 7.4593C151.853 8.77198 152.818 10.3205 153.449 12.0131C154.081 13.7056 154.366 15.5078 154.288 17.3126C154.317 19.6507 153.855 21.9689 152.933 24.1178C152.005 26.2052 150.492 27.9795 148.578 29.2268C146.446 30.6137 143.943 31.3195 141.4 31.2507H133.776L133.779 3.69688Z" fill="white"/>
<path d="M169.588 31.248C167.465 31.2639 165.392 30.6106 163.662 29.3808C161.932 28.1511 160.634 26.4075 159.952 24.3977L164.131 22.875C164.681 24.0648 165.527 25.0933 166.589 25.8617C167.567 26.588 168.753 26.9814 169.972 26.9843C171.006 27.0351 172.025 26.7106 172.84 26.0707C173.488 25.4839 173.877 24.6636 173.921 23.7902C173.965 22.9167 173.661 22.0614 173.074 21.4124C172.89 21.2093 172.681 21.0295 172.453 20.877C171.18 19.9652 169.805 19.2052 168.356 18.6127C167.247 18.132 166.358 17.7132 165.687 17.3563C164.894 16.9227 164.137 16.4268 163.422 15.8732C162.624 15.2884 161.981 14.5183 161.547 13.6294C161.124 12.7252 160.912 11.7365 160.927 10.7383C160.915 9.78619 161.116 8.84349 161.514 7.97851C161.912 7.11352 162.497 6.34792 163.228 5.73719C164.92 4.32463 167.081 3.59849 169.283 3.70234C171.145 3.66352 172.969 4.22417 174.488 5.30154C175.909 6.28262 176.954 7.71917 177.449 9.37398L173.307 10.7396C172.953 9.89874 172.353 9.18396 171.587 8.68848C170.821 8.193 169.924 7.93979 169.012 7.96187C168.123 7.92494 167.249 8.19393 166.536 8.72392C166.219 8.97053 165.967 9.28899 165.798 9.65286C165.63 10.0167 165.551 10.4155 165.567 10.8161C165.568 11.0144 165.594 11.2119 165.645 11.4034C165.698 11.5978 165.791 11.7792 165.918 11.936C166.047 12.1012 166.17 12.2528 166.286 12.3935C166.446 12.5691 166.63 12.7221 166.832 12.8482C167.076 13.0149 167.284 13.1473 167.452 13.247C167.62 13.3467 167.871 13.4806 168.207 13.6472C168.543 13.8138 168.801 13.9326 168.981 14.0077C169.162 14.0828 169.459 14.2153 169.872 14.4078C170.284 14.6004 170.583 14.7315 170.762 14.808C171.688 15.2105 172.592 15.6614 173.47 16.1586C174.306 16.6557 175.108 17.2092 175.869 17.8152C176.715 18.4636 177.403 19.2964 177.88 20.2502C178.35 21.2111 178.588 22.2686 178.575 23.338C178.621 24.439 178.409 25.5355 177.955 26.5399C177.502 27.5443 176.82 28.4288 175.964 29.123C174.162 30.5649 171.906 31.3199 169.599 31.2534" fill="white"/>
<path d="M185.144 3.69688V7.83486H190.797V27.1154H185.15V31.2425H201.094V27.11H195.406V7.83486H201.094V3.69688H185.144Z" fill="white"/>
<path d="M212.553 26.8723H215.069C216.274 26.8995 217.467 26.6174 218.532 26.0529C219.488 25.5432 220.284 24.7801 220.835 23.8474C221.377 22.9215 221.782 21.9212 222.035 20.8784C222.296 19.7972 222.427 18.6885 222.423 17.5762C222.488 15.2653 221.883 12.985 220.682 11.0101C220.141 10.131 219.374 9.41355 218.461 8.93298C217.548 8.4524 216.523 8.22641 215.492 8.27871H212.551L212.553 26.8723ZM207.95 31.2507V3.89899H214.759C216.379 3.87668 217.991 4.14114 219.52 4.68016C220.823 5.13383 222.026 5.83755 223.061 6.75188C224.015 7.63203 224.811 8.66955 225.414 9.81918C226.039 10.9888 226.501 12.2387 226.788 13.5338C227.341 16.1277 227.354 18.8078 226.826 21.4069C226.555 22.6896 226.112 23.9299 225.509 25.0942C224.914 26.2742 224.123 27.3442 223.169 28.2585C222.123 29.2219 220.892 29.9609 219.55 30.4299C217.96 30.9972 216.282 31.2747 214.595 31.2493L207.95 31.2507Z" fill="white"/>
<path d="M231.813 3.69688V31.2425H250.001V26.8013H236.417V19.2437H244.748V14.7998H236.417V8.14624H249.186V3.69688H231.813Z" fill="white"/>
</g>
<defs>
<clipPath id="clip0_6_4">
<rect width="250" height="34.4354" fill="white"/>
</clipPath>
</defs>
</svg>
